# xmcd
#
# Track frame offsets:
#	150
#	13047
#	34453
#	50459
#	64523
#	72894
#	99074
#	122633
#	137777
#	153376
#	170046
#	183819
#	204137
#	218339
#	231124
#	253258
#	264754
#	275002
#	293980
#
# Disc length: 4305 seconds
#
# Revision: 0
# Processed by: cddbd v1.5.1PL2 Copyright (c) Steve Scherf et al.
# Submitted via: dBpowerAMP V4.0
#
DISCID=0b10cf13
DTITLE=Linda Lemay - Les Letres Rouges
DYEAR=2001
DGENRE=Chanson
TTITLE0=Du coq à l'âme
TTITLE1=Maudite Prière
TTITLE2=J'veux pas de chien
TTITLE3=J'veux bien t'aimer
TTITLE4=J'aime la pêche
TTITLE5=La centenaire
TTITLE6=Macédoine
TTITLE7=Donnez lui la passion
TTITLE8=La cassette vidéo
TTITLE9=Un homme de 50 ans
TTITLE10=Le 29 août 2000 au théatre Saint-Denis
TTITLE11=Va rejoindre ta femme
TTITLE12=L'enfant au cheveux gris
TTITLE13=Gros colons
TTITLE14=Les deux homme
TTITLE15=Bande de dégonflés
TTITLE16=Bande de dégonflantes
TTITLE17=Ma plus belle déception
TTITLE18=La leçon de québequois
EXTD=
EXTT0=
EXTT1=
EXTT2=
EXTT3=
EXTT4=
EXTT5=
EXTT6=
EXTT7=
EXTT8=
EXTT9=
EXTT10=
EXTT11=
EXTT12=
EXTT13=
EXTT14=
EXTT15=
EXTT16=
EXTT17=
EXTT18=
PLAYORDER=
